<svg xmlns="http://www.w3.org/2000/svg" xmlns:xlink="http://www.w3.org/1999/xlink" version="1.1" x="0px" y="0px" viewBox="0 0 100 125" style="enable-background:new 0 0 100 100;" xml:space="preserve">
<path d="M67.4,81.8c6.6,0,12.2-4.5,14-10.6c6.1-1.7,10.6-7.3,10.6-14V32.7c0-8-6.5-14.5-14.5-14.5H32.6c-6.6,0-12.2,4.5-14,10.6  c-6.1,1.7-10.6,7.3-10.6,14v24.7c0,8,6.5,14.5,14.5,14.5H67.4z M77.4,23.2c5.2,0,9.5,4.3,9.5,9.5v24.7c0,3.6-2,6.8-5,8.4v-23  c0-8-6.5-14.5-14.5-14.5H24.2c1.6-3,4.8-5,8.4-5H77.4z M34.6,66.8V43.2c0-1.5,1.7-2.5,3-1.7l20.4,11.8c1.3,0.8,1.3,2.7,0,3.5  L37.6,68.5C36.3,69.3,34.6,68.3,34.6,66.8z"/>
</svg>
